<?xml version="1.0" encoding="utf-8"?>
<!-- Generator: Adobe Illustrator 19.1.0, SVG Export Plug-In . SVG Version: 6.00 Build 0)  -->
<svg version="1.1" id="Layer_1" xmlns="http://www.w3.org/2000/svg" xmlns:xlink="http://www.w3.org/1999/xlink" x="0px" y="0px"
	 viewBox="0 0 580 29.6963" style="enable-background:new 0 0 580 29.6963;" xml:space="preserve">
<style type="text/css">
	.st0{fill:#547DA3;}
	.st1{fill:#064A82;}
</style>
<g>
	<path class="st0" d="M178.3173,2.89c1.0689,0,2.217,0.3959,3.1671,1.0689l1.2669-2.4941c-1.2669-0.9501-2.89-1.4252-4.4736-1.4648
		c-3.4838,0-6.6906,2.4546-6.6906,7.0073v2.2962h-2.6921v2.5337h2.6921v17.6964h3.0484V11.8372h5.978V9.3035h-5.978V6.6114
		C174.6355,4.1965,176.2982,2.89,178.3173,2.89z M155.0776,11.4017c4.3548,0,7.4823,3.1671,7.4823,7.7199
		c0,4.5924-3.1275,7.7595-7.4823,7.7595c-4.3548,0-7.4824-3.1671-7.4824-7.7595C147.5952,14.5688,150.7227,11.4017,155.0776,11.4017
		z M155.0776,8.5909c-6.1759,0-10.5703,4.2756-10.5703,10.4911c0,6.2551,4.3944,10.5703,10.5703,10.5703
		s10.5703-4.3153,10.5703-10.5703C165.6479,12.8665,161.2535,8.5909,155.0776,8.5909z M123.3652,8.5513
		c-3.8006,0-7.2448,1.6628-7.2448,5.6613c-0.0396,7.4032,11.6392,4.8299,11.5205,9.8577c-0.0396,2.0587-2.019,2.9692-4.4736,2.9692
		c-2.4545,0-5.1466-0.9897-6.9281-2.6525l-1.1877,2.3358c1.9794,1.9003,5.0278,2.9296,7.997,2.9296
		c3.9985,0,7.6407-1.8211,7.6407-5.9384c0-7.4824-11.6392-5.107-11.6392-9.7389c0-1.9399,1.7815-2.7713,4.1173-2.7713
		c1.9399,0,4.0381,0.673,5.6613,1.7023l1.1877-2.4546C128.2742,9.2639,125.8593,8.5513,123.3652,8.5513z M110.1023,29.5336V0.1584
		h-3.088v29.3752H110.1023z M89.8715,26.9999c-2.9296,0-4.7903-1.5044-4.7903-3.8006s1.8211-3.3651,5.305-3.3651h6.4926v2.4941
		C96.087,25.2184,93.3949,26.9999,89.8715,26.9999z M96.9183,29.5336h3.0088l-0.0396-13.7771
		c-0.0396-4.4736-2.89-7.2053-8.0366-7.2053c-3.563,0-5.8196,1.0293-8.5117,2.8108l1.3064,2.2566
		c2.1774-1.5044,4.3152-2.3753,6.6114-2.3753c3.6818,0,5.5821,1.8211,5.5821,4.8694v1.2273h-6.8489
		c-4.9091,0.0396-7.7991,2.3358-7.7991,5.978c0,3.6026,2.7712,6.3739,7.0865,6.3739c3.3255,0,5.978-1.1085,7.6407-3.3651V29.5336z
		 M69.165,8.5513c-3.8006,0.0396-6.6114,1.544-8.0762,4.7111V8.67h-3.088v20.8635h3.088V18.3298
		c0.3563-3.9589,2.89-6.651,7.0073-6.6906c3.6818,0,5.8988,2.1774,5.8988,5.8592v12.0351h3.088V16.6671
		C77.0828,11.6392,74.1532,8.5513,69.165,8.5513z M43.1931,8.5513c-3.8006,0.0396-6.6114,1.544-8.0762,4.7111V8.67h-3.088v20.8635
		h3.088V18.3298c0.3563-3.9589,2.89-6.651,7.0073-6.6906c3.6818,0,5.8988,2.1774,5.8988,5.8592v12.0351h3.088V16.6671
		C51.111,11.6392,48.1814,8.5513,43.1931,8.5513z M20.2301,19.4779H7.7991L13.975,5.4238L20.2301,19.4779z M21.5761,22.5263
		l3.088,7.0073h3.4443L15.7169,1.8211H12.431L0,29.5336h3.3651l3.0879-7.0073H21.5761z"/>
	<path class="st1" d="M390.5648,29.537V0.1619h-3.088V29.537H390.5648z M370.3338,27.0033c-2.9296,0-4.7903-1.5044-4.7903-3.8006
		s1.8211-3.3651,5.305-3.3651h6.4926v2.4941C376.5493,25.2218,373.8573,27.0033,370.3338,27.0033z M377.3807,29.537h3.0088
		l-0.0396-13.777c-0.0396-4.4736-2.89-7.2053-8.0366-7.2053c-3.563,0-5.8196,1.0293-8.5117,2.8108l1.3065,2.2566
		c2.1774-1.5044,4.3152-2.3753,6.6114-2.3753c3.6818,0,5.5821,1.8211,5.5821,4.8694v1.2273h-6.8489
		c-4.9091,0.0396-7.7991,2.3358-7.7991,5.978c0,3.6026,2.7712,6.3739,7.0865,6.3739c3.3255,0,5.978-1.1085,7.6407-3.3651V29.537z
		 M353.7852,8.6735h-3.088V29.537h3.088v-11.085c0.3563-4.1173,3.0879-6.8489,7.4823-6.7698V8.5547
		c-3.5234,0.0396-6.0967,1.7023-7.4823,4.7507V8.6735z M334.7021,11.4052c4.3549,0,7.4824,3.1671,7.4824,7.7199
		c0,4.5924-3.1275,7.7595-7.4824,7.7595c-4.3548,0-7.4823-3.1671-7.4823-7.7595C327.2198,14.5723,330.3473,11.4052,334.7021,11.4052
		z M334.7021,8.5943c-6.1759,0-10.5703,4.2756-10.5703,10.4911c0,6.2551,4.3944,10.5703,10.5703,10.5703
		c6.1759,0,10.5703-4.3153,10.5703-10.5703C345.2725,12.87,340.8781,8.5943,334.7021,8.5943z M318.7077,29.537V8.6735h-3.0484
		V29.537H318.7077z M317.1637,0.5577c-1.1481,0-2.0191,0.9106-2.0191,2.1378c0,1.2272,0.871,2.1378,2.0191,2.1378
		c1.1481,0,2.019-0.9106,2.019-2.1378C319.1827,1.4683,318.3118,0.5577,317.1637,0.5577z M303.8211,29.537l8.195-20.8635h-3.1275
		l-6.6114,17.6568l-6.651-17.6568h-3.2859l8.2742,20.8635H303.8211z M279.8688,27.0033c-2.9296,0-4.7903-1.5044-4.7903-3.8006
		s1.8211-3.3651,5.305-3.3651h6.4926v2.4941C286.0843,25.2218,283.3923,27.0033,279.8688,27.0033z M286.9157,29.537h3.0088
		l-0.0396-13.777c-0.0396-4.4736-2.89-7.2053-8.0366-7.2053c-3.563,0-5.8196,1.0293-8.5117,2.8108l1.3065,2.2566
		c2.1774-1.5044,4.3152-2.3753,6.6114-2.3753c3.6818,0,5.5821,1.8211,5.5821,4.8694v1.2273h-6.8489
		c-4.9091,0.0396-7.7991,2.3358-7.7991,5.978c0,3.6026,2.7712,6.3739,7.0865,6.3739c3.3255,0,5.978-1.1085,7.6407-3.3651V29.537z
		 M259.1624,8.5547c-3.8402,0.0396-6.6906,1.544-8.1158,4.7903V0.1619h-3.088V29.537h3.088V19.2834
		c0-4.4736,2.6129-7.6011,7.0469-7.6407c3.6818,0,5.8988,2.1774,5.8988,5.8592V29.537h3.088V16.6706
		C267.0802,11.6427,264.1506,8.5547,259.1624,8.5547z M225.4313,17.779c0.4751-3.9589,3.3255-6.5322,7.2844-6.5322
		c4.0777,0,6.7698,2.5337,6.9677,6.5322H225.4313z M232.7157,8.5943c-6.0572,0-10.3328,4.3152-10.3328,10.5307
		s4.236,10.5308,10.3724,10.5308c3.4839,0,6.4135-1.2669,8.3929-3.4839l-1.7023-1.8211c-1.6231,1.7023-3.8797,2.6129-6.453,2.6129
		c-4.0381,0-7.0073-2.5733-7.5615-6.651h17.0233C242.7714,13.2263,239.4459,8.5547,232.7157,8.5943z M199.7365,16.7893h8.3533
		c4.5132,0,7.126,1.7815,7.126,4.7903c0,3.1671-2.6129,4.9486-7.126,4.9486h-8.3533V16.7893z M199.7365,4.8729h8.3533
		c3.7214,0,5.8988,1.5836,5.8988,4.3944c0,2.89-2.1774,4.5132-5.8988,4.5132h-8.3533V4.8729z M196.5693,1.8246V29.537h11.8768
		c6.2551,0,9.9765-2.8108,9.9765-7.5219c0-3.8006-2.3358-6.4135-6.3343-7.0073c3.2463-0.673,5.107-3.0088,5.107-6.2551
		c0-4.3548-3.3651-6.9281-8.9472-6.9281H196.5693z"/>
	<path class="st1" d="M562.956,17.78c0.475-3.9589,3.3255-6.5322,7.2844-6.5322c4.0776,0,6.7697,2.5337,6.9677,6.5322H562.956z
		 M570.2404,8.5953c-6.0572,0-10.3328,4.3152-10.3328,10.5307c0,6.2155,4.236,10.5308,10.3724,10.5308
		c3.4839,0,6.4135-1.2669,8.3929-3.4839l-1.7024-1.8211c-1.6231,1.7023-3.8797,2.6129-6.453,2.6129
		c-4.0381,0-7.0073-2.5733-7.5615-6.651h17.0233C580.296,13.2272,576.9705,8.5557,570.2404,8.5953z M547.198,8.5557
		c-3.8005,0.0396-6.6114,1.544-8.0762,4.7111V8.6745h-3.088V29.538h3.088V18.3342c0.3563-3.9589,2.89-6.651,7.0073-6.6906
		c3.6818,0,5.8988,2.1774,5.8988,5.8592V29.538h3.088V16.6715C555.1158,11.6437,552.1862,8.5557,547.198,8.5557z M528.5115,29.538
		V8.6745h-3.0483V29.538H528.5115z M526.9675,0.5587c-1.1481,0-2.019,0.9106-2.019,2.1378c0,1.2273,0.871,2.1378,2.019,2.1378
		c1.1481,0,2.019-0.9106,2.019-2.1378C528.9865,1.4692,528.1156,0.5587,526.9675,0.5587z M511.4869,8.5953
		c-6.0175,0-10.3328,4.3152-10.3328,10.5307c0,6.2155,4.2756,10.5308,10.3328,10.5308c3.6026,0,6.4927-1.3461,8.3533-3.6026
		l-1.7815-1.9003c-1.4648,1.7419-3.7214,2.6921-6.4531,2.6921c-4.3152,0-7.4032-3.1671-7.4032-7.7199
		c0-4.5527,3.088-7.6803,7.4032-7.6803c2.5337,0,4.632,0.9106,6.2155,2.4149l1.7023-2.1774
		C517.6232,9.7038,514.852,8.5557,511.4869,8.5953z M495.7299,29.538V8.6745h-3.0484V29.538H495.7299z M494.186,0.5587
		c-1.1481,0-2.019,0.9106-2.019,2.1378c0,1.2273,0.8709,2.1378,2.019,2.1378s2.019-0.9106,2.019-2.1378
		C496.205,1.4692,495.3341,0.5587,494.186,0.5587z M474.3505,26.9251c-4.434,0-7.5615-3.2463-7.5615-7.7595
		c0-4.5527,3.1275-7.8386,7.5615-7.8386c4.3944,0,7.522,3.2859,7.522,7.8386C481.8724,23.6788,478.7449,26.9251,474.3505,26.9251z
		 M484.9604,0.1628h-3.088v13.0249c-1.544-2.9692-4.434-4.6715-8.1554-4.6715c-5.8988,0-10.0161,4.3152-10.0161,10.5703
		c0,6.2155,4.1173,10.6099,10.0557,10.6099c3.7214,0,6.5718-1.7023,8.1158-4.6319v4.4736h3.088V0.1628z M443.4699,17.78
		c0.4751-3.9589,3.3255-6.5322,7.2844-6.5322c4.0777,0,6.7697,2.5337,6.9677,6.5322H443.4699z M450.7543,8.5953
		c-6.0572,0-10.3328,4.3152-10.3328,10.5307c0,6.2155,4.2361,10.5308,10.3724,10.5308c3.4839,0,6.4135-1.2669,8.3929-3.4839
		l-1.7023-1.8211c-1.6232,1.7023-3.8797,2.6129-6.4531,2.6129c-4.0381,0-7.0073-2.5733-7.5615-6.651h17.0234
		C460.81,13.2272,457.4845,8.5557,450.7543,8.5953z M434.5208,29.538V1.8255h-3.8798l-10.0952,19.953L410.411,1.8255h-3.9193V29.538
		h3.0088V6.695l10.0556,19.9134h1.9003L431.5516,6.695l0.0396,22.843H434.5208z"/>
</g>
</svg>
