<?xml version="1.0" encoding="utf-8"?>
<!-- Generator: Adobe Illustrator 19.1.0, SVG Export Plug-In . SVG Version: 6.00 Build 0)  -->
<svg version="1.1" id="Layer_1" xmlns="http://www.w3.org/2000/svg" xmlns:xlink="http://www.w3.org/1999/xlink" x="0px" y="0px"
	 viewBox="0 0 350 62.9112" style="enable-background:new 0 0 350 62.9112;" xml:space="preserve">
<style type="text/css">
	.st0{fill:#547DA3;}
	.st1{fill:#064A82;}
</style>
<g>
	<path class="st0" d="M162.4986,2.6337c0.9741,0,2.0203,0.3608,2.8862,0.9741l1.1545-2.2729
		C165.3848,0.469,163.9056,0.0361,162.4625,0c-3.1748,0-6.0971,2.2368-6.0971,6.3857v2.0925h-2.4532v2.3089h2.4532v16.1265h2.778
		V10.7871h5.4476V8.4782h-5.4476V6.0249C159.1434,3.8242,160.6586,2.6337,162.4986,2.6337z M141.3205,10.3902
		c3.9685,0,6.8186,2.8862,6.8186,7.0351c0,4.185-2.8501,7.0711-6.8186,7.0711c-3.9685,0-6.8186-2.8862-6.8186-7.0711
		C134.5019,13.2764,137.352,10.3902,141.3205,10.3902z M141.3205,7.8288c-5.6281,0-9.6326,3.8963-9.6326,9.5605
		c0,5.7002,4.0046,9.6326,9.6326,9.6326c5.628,0,9.6326-3.9324,9.6326-9.6326C150.9531,11.7251,146.9485,7.8288,141.3205,7.8288z
		 M112.4213,7.7927c-3.4634,0-6.6021,1.5153-6.6021,5.1591c-0.0361,6.7464,10.6067,4.4014,10.4985,8.9832
		c-0.0361,1.876-1.8399,2.7058-4.0767,2.7058c-2.2368,0-4.69-0.9019-6.3135-2.4172l-1.0823,2.1286
		c1.8038,1.7317,4.5818,2.6697,7.2876,2.6697c3.6438,0,6.9629-1.6596,6.9629-5.4116c0-6.8186-10.6067-4.654-10.6067-8.875
		c0-1.7678,1.6235-2.5254,3.752-2.5254c1.7678,0,3.6799,0.6133,5.159,1.5513l1.0823-2.2368
		C116.8949,8.4421,114.6942,7.7927,112.4213,7.7927z M100.335,26.9136V0.1443h-2.814v26.7693H100.335z M81.8989,24.6047
		c-2.6697,0-4.3654-1.3709-4.3654-3.4634s1.6596-3.0666,4.8344-3.0666h5.9167v2.2729
		C87.563,22.9812,85.1097,24.6047,81.8989,24.6047z M88.3206,26.9136h2.7419l-0.0361-12.5549
		c-0.0361-4.0767-2.6336-6.5661-7.3237-6.5661c-3.2469,0-5.3034,0.938-7.7566,2.5615l1.1906,2.0564
		c1.9842-1.3709,3.9324-2.1646,6.0249-2.1646c3.3552,0,5.0869,1.6595,5.0869,4.4375v1.1184h-6.2414
		c-4.4736,0.0361-7.1072,2.1286-7.1072,5.4477c0,3.283,2.5254,5.8084,6.4578,5.8084c3.0305,0,5.4477-1.0102,6.9629-3.0666V26.9136z
		 M63.0293,7.7927c-3.4634,0.0361-6.0249,1.407-7.3598,4.2932v-4.185h-2.814v19.0127h2.814V16.7038
		c0.3247-3.6077,2.6336-6.061,6.3857-6.097c3.3552,0,5.3755,1.9843,5.3755,5.3394v10.9675h2.814V15.1885
		C70.2447,10.6067,67.575,7.7927,63.0293,7.7927z M39.3614,7.7927c-3.4634,0.0361-6.0249,1.407-7.3598,4.2932v-4.185h-2.814v19.0127
		h2.814V16.7038c0.3247-3.6077,2.6336-6.061,6.3857-6.097c3.3552,0,5.3755,1.9843,5.3755,5.3394v10.9675h2.814V15.1885
		C46.5769,10.6067,43.9071,7.7927,39.3614,7.7927z M18.4355,17.75H7.1072l5.628-12.8074L18.4355,17.75z M19.6621,20.528
		l2.814,6.3857h3.1387L14.3226,1.6596h-2.9944L0,26.9136h3.0666l2.814-6.3857H19.6621z"/>
	<path class="st1" d="M177.3698,62.766V35.9967h-2.814V62.766H177.3698z M158.9335,60.4571c-2.6697,0-4.3653-1.3709-4.3653-3.4634
		c0-2.0925,1.6596-3.0666,4.8344-3.0666h5.9167V56.2C164.5977,58.8336,162.1444,60.4571,158.9335,60.4571z M165.3553,62.766h2.7419
		l-0.0361-12.5549c-0.0361-4.0767-2.6336-6.5661-7.3237-6.5661c-3.2469,0-5.3034,0.938-7.7566,2.5615l1.1906,2.0564
		c1.9842-1.3709,3.9324-2.1646,6.0249-2.1646c3.3552,0,5.0869,1.6595,5.0869,4.4375v1.1184h-6.2414
		c-4.4736,0.0361-7.1072,2.1286-7.1072,5.4477c0,3.283,2.5254,5.8084,6.4578,5.8084c3.0305,0,5.4476-1.0102,6.9629-3.0666V62.766z
		 M143.8529,43.7533h-2.814V62.766h2.814V52.6644c0.3247-3.752,2.814-6.2413,6.8186-6.1692v-2.8501
		c-3.2109,0.0361-5.5559,1.5513-6.8186,4.3293V43.7533z M126.4628,46.2426c3.9685,0,6.8186,2.8862,6.8186,7.0351
		c0,4.185-2.8501,7.0711-6.8186,7.0711c-3.9685,0-6.8186-2.8862-6.8186-7.0711C119.6442,49.1288,122.4943,46.2426,126.4628,46.2426z
		 M126.4628,43.6812c-5.628,0-9.6326,3.8963-9.6326,9.5605c0,5.7002,4.0046,9.6326,9.6326,9.6326
		c5.6281,0,9.6326-3.9324,9.6326-9.6326C136.0954,47.5775,132.0908,43.6812,126.4628,43.6812z M111.8872,62.766V43.7533h-2.778
		V62.766H111.8872z M110.4802,36.3575c-1.0462,0-1.84,0.8298-1.84,1.9482c0,1.1184,0.7937,1.9482,1.84,1.9482
		c1.0462,0,1.8399-0.8298,1.8399-1.9482C112.3201,37.1873,111.5264,36.3575,110.4802,36.3575z M98.3213,62.766l7.468-19.0127
		h-2.8501l-6.0249,16.0905l-6.061-16.0905h-2.9944L95.399,62.766H98.3213z M76.4938,60.4571c-2.6697,0-4.3653-1.3709-4.3653-3.4634
		c0-2.0925,1.6596-3.0666,4.8344-3.0666h5.9167V56.2C82.1579,58.8336,79.7047,60.4571,76.4938,60.4571z M82.9155,62.766h2.7419
		l-0.0361-12.5549c-0.0361-4.0767-2.6337-6.5661-7.3237-6.5661c-3.2469,0-5.3034,0.938-7.7566,2.5615l1.1906,2.0564
		c1.9842-1.3709,3.9324-2.1646,6.0249-2.1646c3.3552,0,5.0869,1.6595,5.0869,4.4375v1.1184H76.602
		c-4.4736,0.0361-7.1072,2.1286-7.1072,5.4477c0,3.283,2.5254,5.8084,6.4578,5.8084c3.0305,0,5.4477-1.0102,6.9629-3.0666V62.766z
		 M57.6242,43.6451c-3.4995,0.0361-6.0971,1.407-7.3958,4.3654V35.9967h-2.814V62.766h2.814v-9.344
		c0-4.0767,2.3811-6.9268,6.4217-6.9629c3.3552,0,5.3755,1.9843,5.3755,5.3394V62.766h2.814V51.0409
		C64.8396,46.4591,62.1699,43.6451,57.6242,43.6451z M26.8855,52.0511c0.4329-3.6077,3.0305-5.9527,6.6382-5.9527
		c3.7159,0,6.1692,2.3089,6.3496,5.9527H26.8855z M33.5237,43.6812c-5.5198,0-9.4162,3.9324-9.4162,9.5965
		s3.8603,9.5966,9.4522,9.5966c3.1748,0,5.8445-1.1545,7.6484-3.1748l-1.5513-1.6596c-1.4792,1.5513-3.5356,2.3811-5.8806,2.3811
		c-3.6799,0-6.3857-2.345-6.8907-6.061h15.5132C42.6873,47.9022,39.6568,43.6451,33.5237,43.6812z M3.4701,51.1491h7.6123
		c4.1128,0,6.4939,1.6235,6.4939,4.3654c0,2.8862-2.3811,4.5096-6.4939,4.5096H3.4701V51.1491z M3.4701,40.2899h7.6123
		c3.3912,0,5.3755,1.4431,5.3755,4.0046c0,2.6336-1.9843,4.1128-5.3755,4.1128H3.4701V40.2899z M0.5839,37.512V62.766H11.407
		c5.7002,0,9.0915-2.5615,9.0915-6.8547c0-3.4634-2.1286-5.8445-5.7724-6.3857c2.9583-0.6133,4.654-2.7419,4.654-5.7002
		c0-3.9685-3.0666-6.3135-8.1535-6.3135H0.5839z"/>
	<path class="st1" d="M334.468,52.0519c0.433-3.6077,3.0305-5.9528,6.6382-5.9528c3.7159,0,6.1692,2.3089,6.3496,5.9528H334.468z
		 M341.1062,43.682c-5.5198,0-9.4162,3.9324-9.4162,9.5965c0,5.6642,3.8603,9.5966,9.4522,9.5966
		c3.1748,0,5.8445-1.1545,7.6484-3.1748l-1.5513-1.6596c-1.4792,1.5513-3.5356,2.3811-5.8806,2.3811
		c-3.6799,0-6.3857-2.345-6.8907-6.061h15.5132C350.2698,47.9031,347.2393,43.646,341.1062,43.682z M320.1079,43.646
		c-3.4634,0.0361-6.0249,1.407-7.3597,4.2932v-4.185h-2.8141v19.0127h2.8141V52.557c0.3247-3.6077,2.6336-6.061,6.3857-6.097
		c3.3552,0,5.3755,1.9843,5.3755,5.3394v10.9675h2.8141V51.0418C327.3234,46.46,324.6536,43.646,320.1079,43.646z M303.0791,62.7669
		V43.7542h-2.7779v19.0127H303.0791z M301.6721,36.3583c-1.0462,0-1.8399,0.8298-1.8399,1.9482
		c0,1.1184,0.7937,1.9482,1.8399,1.9482c1.0463,0,1.8399-0.8298,1.8399-1.9482C303.512,37.1881,302.7183,36.3583,301.6721,36.3583z
		 M287.5648,43.682c-5.4837,0-9.4162,3.9324-9.4162,9.5965c0,5.6642,3.8964,9.5966,9.4162,9.5966
		c3.283,0,5.9167-1.2266,7.6123-3.283l-1.6235-1.7317c-1.3349,1.5874-3.3913,2.4533-5.8806,2.4533
		c-3.9324,0-6.7464-2.8862-6.7464-7.0351c0-4.1489,2.814-6.999,6.7464-6.999c2.309,0,4.2211,0.8298,5.6642,2.2007l1.5513-1.9843
		C293.1567,44.6922,290.6313,43.646,287.5648,43.682z M273.2056,62.7669V43.7542h-2.7779v19.0127H273.2056z M271.7986,36.3583
		c-1.0462,0-1.8399,0.8298-1.8399,1.9482c0,1.1184,0.7937,1.9482,1.8399,1.9482c1.0463,0,1.8399-0.8298,1.8399-1.9482
		C273.6385,37.1881,272.8449,36.3583,271.7986,36.3583z M253.7228,60.3858c-4.0406,0-6.8907-2.9583-6.8907-7.0712
		c0-4.1489,2.8501-7.1433,6.8907-7.1433c4.0046,0,6.8547,2.9944,6.8547,7.1433C260.5775,57.4274,257.7274,60.3858,253.7228,60.3858z
		 M263.3914,35.9976h-2.814V47.867c-1.407-2.7058-4.0406-4.2571-7.4319-4.2571c-5.3755,0-9.1275,3.9324-9.1275,9.6326
		c0,5.6641,3.752,9.6687,9.1636,9.6687c3.3913,0,5.9888-1.5513,7.3958-4.221v4.0767h2.814V35.9976z M225.5816,52.0519
		c0.4329-3.6077,3.0305-5.9528,6.6382-5.9528c3.716,0,6.1692,2.3089,6.3496,5.9528H225.5816z M232.2198,43.682
		c-5.5198,0-9.4162,3.9324-9.4162,9.5965c0,5.6642,3.8603,9.5966,9.4522,9.5966c3.1748,0,5.8445-1.1545,7.6484-3.1748
		l-1.5513-1.6596c-1.4792,1.5513-3.5356,2.3811-5.8806,2.3811c-3.6799,0-6.3857-2.345-6.8907-6.061h15.5132
		C241.3835,47.9031,238.353,43.646,232.2198,43.682z M217.4265,62.7669V37.5128h-3.5356l-9.1997,18.1829l-9.2358-18.1829h-3.5717
		v25.2541h2.7419V41.9503l9.1636,18.1469h1.7317l9.1997-18.1469l0.0361,20.8165H217.4265z"/>
</g>
</svg>
