<?xml version="1.0" encoding="utf-8"?>
<!-- Generator: Adobe Illustrator 21.1.0, SVG Export Plug-In . SVG Version: 6.00 Build 0)  -->
<svg version="1.1" id="Layer_1" xmlns="http://www.w3.org/2000/svg" xmlns:xlink="http://www.w3.org/1999/xlink" x="0px" y="0px"
	 viewBox="0 0 190 70.2" style="enable-background:new 0 0 190 70.2;" xml:space="preserve">
<style type="text/css">
	.st0{fill:url(#SVGID_1_);}
	.st1{fill:#004B89;}
</style>
<linearGradient id="SVGID_1_" gradientUnits="userSpaceOnUse" x1="35.1248" y1="0" x2="35.1248" y2="70.2496">
	<stop  offset="0" style="stop-color:#05C3DC"/>
	<stop  offset="0.2011" style="stop-color:#05BFD9"/>
	<stop  offset="0.3853" style="stop-color:#04B4D2"/>
	<stop  offset="0.5629" style="stop-color:#04A2C5"/>
	<stop  offset="0.7364" style="stop-color:#0288B2"/>
	<stop  offset="0.9054" style="stop-color:#01669B"/>
	<stop  offset="1" style="stop-color:#00508B"/>
</linearGradient>
<path class="st0" d="M35.1,0C15.7,0,0,15.7,0,35.1c0,16.3,11.1,30,26.2,34l0,0c0,0,0,0,0,0c2.8,0.7,5.8,1.1,8.9,1.1
	c19.4,0,35.1-15.7,35.1-35.1S54.5,0,35.1,0z M2.5,35.1c0-11.6,6.1-21.8,15.3-27.6c-2.4,2.8-4,6.1-4.6,9.5c-0.8,4.5-0.4,8.8,1.2,12.5
	c-0.5,1.8-0.7,3.6-0.7,5.6c0,9.7,6.4,17.9,15.2,20.6l0,0c0,0,0,0,0,0c2,0.6,4.1,0.9,6.3,0.9c8.6,0,16-5.1,19.5-12.4
	c0.7,3.1,0.6,6.3-0.3,9.4c-1.6,5.6-6.4,14-19.9,14c-0.6,0-1.3,0-2-0.1C15.7,66.3,2.5,52.2,2.5,35.1z M30.3,27.6
	c1.8,1,3.8,1.3,6.1,1.7c2.8,0.5,6,1,9.3,2.9c3.5,1.9,6.2,5.1,7.8,8.8c-1.7,5.4-5.7,9.8-10.9,12c0.5-0.8,0.7-1.6,0.9-2.3
	c1-3.6-0.8-7.2-3.2-8.4c-1.7-0.9-3.5-1.2-5.8-1.6c-2.8-0.5-6-1-9.5-2.9c-3.8-2-6.6-5-8.2-8.6c1.7-5.2,5.6-9.4,10.6-11.6
	c-0.3,0.6-0.6,1.2-0.7,1.8C26,23.2,27.2,25.9,30.3,27.6z M29.1,19.7c0.4-2.3,3.7-4.4,9.2-3.6c9.1,1.5,16.1,9.5,16.1,19
	c0,0.7,0,1.3-0.1,2c-1.8-2.9-4.3-5.4-7.4-7.1c-3.7-2-7.2-2.6-10.1-3.1c-2.2-0.4-3.9-0.7-5.3-1.5C29.9,24.6,28.5,23.3,29.1,19.7z
	 M23.8,39.9c3.8,2,7.4,2.7,10.2,3.1c2.1,0.4,3.7,0.6,5,1.4c1.3,0.7,2.7,3.1,2,5.6c-0.6,1.9-2.1,5.8-11.7,3.6
	c-7.9-2.4-13.6-9.8-13.6-18.4c0-0.8,0.1-1.6,0.2-2.4C17.9,35.7,20.5,38.1,23.8,39.9z M52,63c2.7-3,4.1-6.4,4.7-8.7
	c1.4-4.6,1-9.6-0.7-13.9c0.4-1.7,0.7-3.5,0.7-5.4c0-10.6-7.7-19.5-17.9-21.2l0,0c0,0-0.1,0-0.1,0c-1.2-0.2-2.3-0.3-3.5-0.3
	c-8.5,0-15.9,5-19.4,12.2c-0.6-2.6-0.6-5.4-0.1-8.3C16.8,10.3,23,3.7,32.8,2.6c0.8-0.1,1.6-0.1,2.4-0.1c18,0,32.6,14.6,32.6,32.6
	C67.7,47,61.4,57.3,52,63z"/>
<g>
	<path class="st1" d="M91.8,21.7c-2.4,0-4.3-1.6-4.4-3.8h1.5c0.3,1.6,1.6,2.4,3,2.5c2,0,3.3-0.9,3.3-2.6c0-0.7-0.2-1.3-0.7-1.7
		c-0.4-0.4-0.8-0.5-1.8-0.7L91,15.1c-1.1-0.2-1.9-0.5-2.5-1.1c-0.7-0.6-1.1-1.5-1.1-2.6c0-2.4,1.7-3.9,4.4-3.9
		c1.8,0,4.1,0.7,4.2,3.4l-1.4,0c-0.1-1.7-1.4-2.1-2.9-2.1c-1.9,0-2.9,1-2.9,2.6c0,0.7,0.2,1.2,0.6,1.6c0.4,0.4,1.1,0.6,1.8,0.7
		l1.6,0.3c1.3,0.2,1.9,0.4,2.5,1c0.7,0.6,1.2,1.6,1.2,2.7C96.6,20.2,94.7,21.7,91.8,21.7z"/>
	<path class="st1" d="M106.6,20.3c-0.9,0.9-2,1.4-3.4,1.4c-1.4,0-2.6-0.5-3.5-1.4c-1.3-1.3-1.4-2.5-1.4-5.7c0-3.2,0.1-4.4,1.4-5.7
		c0.9-0.9,2-1.4,3.5-1.4c1.4,0,2.6,0.5,3.4,1.4c1.3,1.3,1.4,2.5,1.4,5.7C108,17.8,107.9,19,106.6,20.3z M105.6,9.9
		c-0.6-0.6-1.5-1-2.4-1c-0.9,0-1.8,0.3-2.4,1c-0.9,0.9-1,1.9-1,4.7c0,2.8,0.1,3.9,1,4.7c0.6,0.6,1.5,1,2.4,1c0.9,0,1.8-0.3,2.4-1
		c0.9-0.9,1-1.9,1-4.7C106.5,11.8,106.4,10.8,105.6,9.9z"/>
	<path class="st1" d="M114.8,21.7c-1.4,0-2.6-0.5-3.5-1.4c-1.3-1.3-1.4-2.5-1.4-5.7c0-3.2,0.1-4.4,1.4-5.7c0.9-0.9,2-1.4,3.5-1.4
		c2.9,0,4.6,1.5,4.8,4.1h-1.5c0-1.7-1.3-2.8-3.3-2.8c-0.9,0-1.8,0.3-2.4,1c-0.9,0.9-1,1.9-1,4.7c0,2.8,0.1,3.9,1,4.7
		c0.6,0.6,1.5,1,2.4,1c1.9,0,3.2-1.1,3.3-2.8h1.5C119.5,20.2,117.6,21.7,114.8,21.7z"/>
	<path class="st1" d="M132.5,62.7c-1.4,0-2.6-0.5-3.5-1.4c-1.3-1.3-1.4-2.5-1.4-5.7c0-3.2,0.1-4.4,1.4-5.7c0.9-0.9,2-1.4,3.5-1.4
		c2.9,0,4.6,1.5,4.8,4.1h-1.5c0-1.7-1.3-2.8-3.3-2.8c-0.9,0-1.8,0.3-2.4,1c-0.9,0.9-1,1.9-1,4.7c0,2.8,0.1,3.9,1,4.7
		c0.6,0.6,1.5,1,2.4,1c1.9,0,3.2-1.1,3.3-2.8h1.5C137.2,61.2,135.3,62.7,132.5,62.7z"/>
	<path class="st1" d="M121.3,21.6V7.7h1.5v13.9H121.3z"/>
	<path class="st1" d="M125.5,21.6V7.7h7.7V9h-6.4v4.9h5.5v1.3h-5.5v5h6.4v1.3H125.5z"/>
	<path class="st1" d="M140.6,9v12.5h-1.5V9h-4V7.7h9.5V9H140.6z"/>
	<path class="st1" d="M151.1,15.8v5.7h-1.5v-5.7l-4.1-8.1h1.6l3.3,6.6l3.2-6.6h1.6L151.1,15.8z"/>
	<path class="st1" d="M168.7,20.3c-0.9,0.9-2,1.4-3.4,1.4c-1.4,0-2.6-0.5-3.5-1.4c-1.3-1.3-1.4-2.5-1.4-5.7c0-3.2,0.1-4.4,1.4-5.7
		c0.9-0.9,2-1.4,3.5-1.4c1.4,0,2.6,0.5,3.4,1.4c1.3,1.3,1.4,2.5,1.4,5.7C170.1,17.8,170,19,168.7,20.3z M167.6,9.9
		c-0.6-0.6-1.5-1-2.4-1c-0.9,0-1.8,0.3-2.4,1c-0.9,0.9-1,1.9-1,4.7c0,2.8,0.1,3.9,1,4.7c0.6,0.6,1.5,1,2.4,1c0.9,0,1.8-0.3,2.4-1
		c0.9-0.9,1-1.9,1-4.7C168.6,11.8,168.5,10.8,167.6,9.9z"/>
	<path class="st1" d="M174.2,9v4.6h5.6V15h-5.6v6.6h-1.5V7.7h7.6V9H174.2z"/>
	<path class="st1" d="M92.9,42H88V28.2h4.7c2.2,0,3.7,1.4,3.7,3.7c0,1.5-0.8,2.6-1.8,3c1.2,0.5,2,1.6,2,3.3
		C96.6,40.7,95.1,42,92.9,42z M92.6,29.5h-3.3l0,4.5h3.3c1.4,0,2.5-0.4,2.5-2.1C95,30.3,94,29.5,92.6,29.5z M92.7,35.3h-3.4l0,5.4
		h3.4c1.5,0,2.5-1,2.5-2.5C95.2,36.6,94.3,35.3,92.7,35.3z"/>
	<path class="st1" d="M99.4,42V28.2h7.7v1.3h-6.4v4.9h5.5v1.3h-5.5v5h6.4V42H99.4z"/>
	<path class="st1" d="M117.6,42v-6.3H111V42h-1.5V28.2h1.5v6.2h6.6v-6.2h1.5V42H117.6z"/>
	<path class="st1" d="M136.7,42h-1.2L131,28.2h1.6l3.6,11.2l3.6-11.2h1.6L136.7,42z"/>
	<path class="st1" d="M143.2,42V28.2h1.5V42H143.2z"/>
	<path class="st1" d="M155.3,40.8c-0.9,0.9-2,1.4-3.4,1.4c-1.4,0-2.6-0.5-3.5-1.4c-1.3-1.3-1.4-2.5-1.4-5.7c0-3.2,0.1-4.4,1.4-5.7
		c0.9-0.9,2-1.4,3.5-1.4c1.4,0,2.6,0.5,3.4,1.4c1.3,1.3,1.4,2.5,1.4,5.7C156.7,38.3,156.6,39.5,155.3,40.8z M154.3,30.4
		c-0.6-0.6-1.5-1-2.4-1c-0.9,0-1.8,0.3-2.4,1c-0.9,0.9-1,1.9-1,4.7c0,2.8,0.1,3.9,1,4.7c0.6,0.6,1.5,1,2.4,1c0.9,0,1.8-0.3,2.4-1
		c0.9-0.9,1-1.9,1-4.7C155.2,32.3,155.1,31.3,154.3,30.4z"/>
	<path class="st1" d="M166.4,42l-3.6-6.1h-2.8V42h-1.5V28.2h4.3c2.4,0,4.1,1.5,4.1,3.9c0,2-0.7,3.3-2.5,3.7l3.8,6.3H166.4z
		 M162.6,29.5h-2.7v5.1h2.7c1.6,0,2.8-0.8,2.8-2.5C165.4,30.4,164.3,29.5,162.6,29.5z"/>
	<path class="st1" d="M130.4,42l-1.4-4.1h-5.4l-1.4,4.1h-1.6l5.1-13.9h1.2l5.1,13.9H130.4z M126.3,30.3l-2.3,6.4l4.6,0L126.3,30.3z"
		/>
	<path class="st1" d="M181.9,42V28.2h1.5v12.5h6.6V42H181.9z"/>
	<path class="st1" d="M97.4,62.5v-11l-3.4,6.4h-1.1l-3.5-6.4v11H88V48.7h1.3l4.1,6.9l4-6.9h1.3v13.9H97.4z"/>
	<path class="st1" d="M101.8,62.5V48.7h7.7V50h-6.4v4.9h5.5v1.3h-5.5v5h6.4v1.3H101.8z"/>
	<path class="st1" d="M120.2,61.1c-0.9,1-2.1,1.5-3.6,1.5h-4.7V48.7h4.7c1.6,0,2.7,0.4,3.6,1.5c1.2,1.3,1.2,3.3,1.2,5.5
		S121.4,59.8,120.2,61.1z M119,51c-0.7-0.8-1.7-1-2.7-1h-3v11.2h3c1.1,0,2-0.2,2.7-1c0.9-1,0.9-2.7,0.9-4.6
		C119.9,53.7,119.9,52,119,51z"/>
	<path class="st1" d="M123.7,62.5V48.7h1.5v13.9H123.7z"/>
	<path class="st1" d="M139.4,62.5V48.7h1.5v13.9H139.4z"/>
	<path class="st1" d="M151.3,62.5l-6.6-11.1v11.1h-1.3V48.7h1.3l6.6,11.1V48.7h1.3v13.9H151.3z"/>
	<path class="st1" d="M155.6,62.5V48.7h7.7V50H157v4.9h5.5v1.3H157v5h6.4v1.3H155.6z"/>
	<path class="st1" d="M178.9,42l-1.4-4.1h-5.4l-1.4,4.1h-1.6l5.1-13.9h1.2l5.1,13.9H178.9z M174.8,30.3l-2.3,6.4l4.6,0L174.8,30.3z"
		/>
</g>
</svg>
